<?xml version="1.0" encoding="utf-8"?><svg width="314" height="293" viewBox="0 0 314 293" xmlns="http://www.w3.org/2000/svg" xmlns:xlink="http://www.w3.org/1999/xlink"><svg id="arrowUP" data-name="Layer 1" viewBox="0 0 60.13 60.13" width="60.13" height="60.13" x="64" y="228.62" xmlns="http://www.w3.org/2000/svg"><defs><style>.acls-1{fill:#4373ed}.acls-2{fill:#fcfcfc}</style></defs><title>arrowUP</title><circle class="acls-1" cx="30.07" cy="30.07" r="30.07"/><path class="acls-2" d="M5.41 41L28.7 17.74a1.75 1.75 0 0 1 2.48 0l23.2 23.2a1.75 1.75 0 0 1-1.24 3 1.75 1.75 0 0 1-1.24-.51L31.36 22.87a1.75 1.75 0 0 0-2.48 0L8.24 43.51A1.75 1.75 0 0 1 7 44h-.36a1.75 1.75 0 0 1-1.23-3z" transform="translate(.07 -1.93)"/></svg><svg id="clear-view-escapes" viewBox="0 0 142.4 59.5" width="142.4" height="59.5" xmlns="http://www.w3.org/2000/svg"><style>.bst0{fill:#fff}</style><path class="bst0" d="M33.8 19.7c-.2-4.2-.5-9.3-.5-13.1h-.1c-1.1 3.6-2.5 7.4-4.2 11.5l-6 14.8h-3.3l-5.4-14.5c-1.6-4.3-2.9-8.2-3.9-11.8h-.1c-.1 3.7-.3 8.8-.6 13.4l-.9 13H4.6L7 2.6h5.5l5.7 14.7c1.4 3.7 2.5 7.1 3.4 10.2h.1c.8-3.1 2-6.4 3.5-10.2l6-14.7h5.5L38.8 33h-4.2l-.8-13.3zM59 33l-.3-2.8h-.1c-1.3 1.7-3.9 3.2-7.4 3.2-4.9 0-7.4-3.1-7.4-6.3 0-5.3 5.2-8.2 14.5-8.1v-.5c0-1.8-.5-5.1-5.5-5.1-2.2 0-4.6.6-6.3 1.6l-1-2.6c2-1.2 4.9-1.9 7.9-1.9 7.4 0 9.1 4.6 9.1 8.9v8.2c0 1.9.1 3.7.4 5.2H59zm-.7-11.1c-4.8-.1-10.2.7-10.2 4.9 0 2.6 1.9 3.8 4.1 3.8 3.1 0 5.1-1.8 5.8-3.7.1-.4.2-.9.2-1.3v-3.7zM69.6 17.1c0-2.3 0-4.1-.2-5.9h3.9l.2 3.6h.1c1.2-2.1 4-4.1 8-4.1 3.3 0 8.5 1.8 8.5 9.3v13h-4.4V20.4c0-3.5-1.4-6.5-5.6-6.5-2.9 0-5.1 1.8-5.9 4.1-.2.5-.3 1.2-.3 1.9V33h-4.4V17.1zM110.5 33l-.3-2.8h-.2c-1.3 1.7-3.9 3.2-7.4 3.2-4.9 0-7.4-3.1-7.4-6.3 0-5.3 5.2-8.2 14.5-8.1v-.5c0-1.8-.5-5.1-5.5-5.1-2.2 0-4.6.6-6.3 1.6l-1-2.6c2-1.2 4.9-1.9 7.9-1.9 7.4 0 9.1 4.6 9.1 8.9v8.2c0 1.9.1 3.7.4 5.2h-3.8zm-.6-11.1c-4.8-.1-10.2.7-10.2 4.9 0 2.6 1.9 3.8 4.1 3.8 3.1 0 5.1-1.8 5.8-3.7.1-.4.2-.9.2-1.3v-3.7zM121.2 1h4.4v32h-4.4V1zM137.8 5.1c0 1.4-1 2.4-2.8 2.4-1.5 0-2.6-1.1-2.6-2.4 0-1.4 1.1-2.5 2.7-2.5s2.7 1.1 2.7 2.5zM132.9 33V11.2h4.4V33h-4.4z"/><g><path class="bst0" d="M4.6 36.8c1-.2 2.7-.4 4.4-.4 2.4 0 3.9.4 5.1 1.3 1 .7 1.5 1.8 1.5 3.2 0 1.7-1.2 3.3-3.1 4v.1c1.8.4 3.8 1.9 3.8 4.5 0 1.6-.6 2.7-1.6 3.6-1.3 1.2-3.4 1.7-6.4 1.7-1.7 0-2.9-.1-3.7-.2V36.8zM7 44.2h2.2c2.5 0 4-1.3 4-3 0-2.1-1.7-3-4.1-3-1.1 0-1.7.1-2.1.2v5.8zm0 8.6c.5.1 1.2.1 2 .1 2.5 0 4.8-.9 4.8-3.5 0-2.5-2.2-3.5-4.8-3.5H7v6.9zM21 48.5c.1 3.2 2.2 4.5 4.6 4.5 1.7 0 2.8-.3 3.7-.7l.4 1.7c-.9.4-2.3.8-4.4.8-4.1 0-6.6-2.6-6.6-6.5s2.4-7 6.3-7c4.4 0 5.5 3.7 5.5 6.1 0 .5-.1.9-.1 1.1H21zm7.1-1.7c0-1.5-.6-3.8-3.4-3.8-2.5 0-3.5 2.2-3.7 3.8h7.1zM40.8 54.6l-.2-1.6h-.1c-.7 1-2.2 1.9-4.1 1.9-2.7 0-4.1-1.9-4.1-3.7 0-3.1 2.9-4.9 8-4.8v-.3c0-1.1-.3-3-3-3-1.2 0-2.5.4-3.5 1l-.6-1.6c1.1-.7 2.7-1.2 4.4-1.2 4.1 0 5.1 2.7 5.1 5.3v4.9c0 1.1.1 2.2.2 3.1h-2.1zm-.3-6.6c-2.6-.1-5.7.4-5.7 2.9 0 1.5 1 2.3 2.3 2.3 1.7 0 2.8-1.1 3.2-2.2.1-.2.1-.5.1-.8V48zM57.9 51.1c0 1.3 0 2.5.1 3.5h-2.2l-.1-2.1h-.1c-.6 1-2 2.4-4.4 2.4-2.1 0-4.6-1.1-4.6-5.7v-7.6H49v7.2c0 2.5.8 4.1 3 4.1 1.6 0 2.8-1.1 3.2-2.1.1-.3.2-.8.2-1.2v-8h2.4v9.5zM64.8 37.9v3.7h3.5v1.8h-3.5v7c0 1.6.5 2.5 1.8 2.5.6 0 1.1-.1 1.4-.2l.1 1.8c-.5.2-1.2.3-2.2.3-1.1 0-2-.3-2.6-1-.7-.7-.9-1.9-.9-3.4v-7.1h-2.1v-1.8h2.1v-3.1l2.4-.5zM72.2 41.6l2.9 7.7c.3.9.6 1.9.9 2.7.2-.8.5-1.8.9-2.7l2.6-7.6h2.6L78.5 51c-1.7 4.5-2.9 6.7-4.6 8.1-1.2 1-2.4 1.4-3 1.5l-.6-2c.6-.2 1.4-.6 2.1-1.2.7-.5 1.5-1.4 2-2.6.1-.2.2-.4.2-.6 0-.1-.1-.3-.2-.6l-4.9-12h2.7z"/></g><g><path class="bst0" d="M101.2 56.5c-.9.4-2.7.9-5 .9-5.4 0-9.4-3.2-9.4-9.1 0-5.7 4.1-9.5 10-9.5 2.4 0 3.9.5 4.5.8l-.6 1.9c-.9-.4-2.3-.8-3.9-.8-4.5 0-7.5 2.7-7.5 7.5 0 4.4 2.7 7.3 7.3 7.3 1.5 0 3-.3 4-.8l.6 1.8zM111.6 57l-.2-1.6h-.1c-.8 1-2.2 1.9-4.2 1.9-2.8 0-4.2-1.9-4.2-3.7 0-3.1 3-4.9 8.3-4.8v-.3c0-1.1-.3-3-3.1-3-1.3 0-2.6.4-3.6 1l-.6-1.6c1.1-.7 2.8-1.2 4.5-1.2 4.2 0 5.2 2.7 5.2 5.3v4.9c0 1.1.1 2.2.2 3.1h-2.2zm-.4-6.6c-2.7-.1-5.8.4-5.8 2.9 0 1.5 1.1 2.3 2.4 2.3 1.8 0 2.9-1.1 3.3-2.2.1-.2.1-.5.1-.8v-2.2zM117.6 48.1c0-1.5 0-2.8-.1-4.1h2.2l.1 2.5h.1c.6-1.7 2.1-2.8 3.8-2.8.3 0 .5 0 .7.1V46c-.3-.1-.5-.1-.9-.1-1.8 0-3 1.3-3.3 3-.1.3-.1.7-.1 1.1v7h-2.5v-8.9zM128 51c.1 3.2 2.2 4.5 4.7 4.5 1.8 0 2.9-.3 3.8-.7l.4 1.7c-.9.4-2.4.8-4.6.8-4.2 0-6.8-2.6-6.8-6.5s2.4-7 6.4-7c4.5 0 5.7 3.7 5.7 6.1 0 .5-.1.9-.1 1.1H128zm7.3-1.7c0-1.5-.7-3.8-3.5-3.8-2.5 0-3.6 2.2-3.8 3.8h7.3z"/></g></svg><svg id="comment" data-name="Layer 1" width="64" height="64" viewBox="0 0 64 64" x="124" y="164.62" xmlns="http://www.w3.org/2000/svg"><defs><style>.ccls-1{fill:#2f5572}</style></defs><title>comment</title><path class="ccls-1" d="M.72.08A.67.67 0 0 0 0 .8v46.48a.72.72 0 0 0 .72.72H48l16 16V.72a.67.67 0 0 0-.72-.72H.8z"/></svg><svg id="cust" data-name="Layer 1" viewBox="0 0 64.44 45.62" width="64.44" height="45.62" y="119" xmlns="http://www.w3.org/2000/svg"><defs><style>.dcls-1{fill:#d4953e}.dcls-2{fill:#fff}</style></defs><title>cust</title><ellipse class="dcls-1" cx="17.64" cy="14.15" rx="11.65" ry="14.15"/><path class="dcls-1" d="M33.42 44.26H-1.85a17.64 17.64 0 0 1 35.27 0z" transform="translate(1.85 -6.32)"/><ellipse class="dcls-1" cx="46.8" cy="14.15" rx="11.65" ry="14.15"/><path class="dcls-1" d="M62.58 44.26H27.31a17.64 17.64 0 0 1 35.27 0z" transform="translate(1.85 -6.32)"/><ellipse class="dcls-2" cx="30.41" cy="22.02" rx="13.62" ry="16.41"/><path class="dcls-2" d="M47.08 51.95H10.43c0-6.56 2.22-12.54 7.49-15.72 2.77-1.67 7.36-2.4 10.83-2.4s7.59.07 10.36 1.74c5.27 3.17 7.95 9.81 7.97 16.38z" transform="translate(1.85 -6.32)"/><ellipse class="dcls-1" cx="30.41" cy="21.84" rx="11.65" ry="14.15"/><path class="dcls-1" d="M46.19 51.95H10.92a17.64 17.64 0 0 1 35.27 0z" transform="translate(1.85 -6.32)"/></svg><svg id="dollar" data-name="Layer 1" viewBox="0 0 56.79 64" width="56.79" height="64" x="249.59" y="48" xmlns="http://www.w3.org/2000/svg"><defs><style>.ecls-1{fill:#d4953e}</style></defs><title>dollar</title><path class="ecls-1" d="M27.76 0h5v8.25c5 0 8.65 1.25 11.37 4.2a9 9 0 0 0-.52 3.55l.48 5.68h-5.2v-2.14c0-5-2.88-6.93-8.09-6.93-5 0-9.61 2.72-9.61 7.86 0 9.81 24.5 6.23 24.5 20.71 0 6.85-6.32 12-13 12.61V64h-5V53.8c-3.44 0-9.77-1.95-13.13-2.8l.44-4.6a16.43 16.43 0 0 0-1.12-6.46h5.36c.08 1.95.24 4.83 1.36 6.38 1.76 2.41 6.88 3.12 9.61 3.12 5.12 0 10.25-2.65 10.25-8.1 0-11.13-24.5-7-24.5-20.55 0-6.38 5.52-11.6 11.77-12.54V0z" transform="translate(-1.73)"/><circle class="ecls-1" cx="3.66" cy="28.54" r="3.66"/><circle class="ecls-1" cx="53.12" cy="28.54" r="3.66"/></svg><svg id="facebook" data-name="Layer 1" width="21.23" height="42.01" viewBox="0 0 21.23 42.01" x="142.4" y="66.52" xmlns="http://www.w3.org/2000/svg"><defs><style>.fcls-1{fill:#fff}</style></defs><title>facebook</title><path class="fcls-1" d="M21.23.31V7H17.4a3.55 3.55 0 0 0-2.85.91 4.26 4.26 0 0 0-.74 2.72v4.77H21l-1 7.47h-6.19V42H6.27V22.85H0v-7.47h6.27V9.85q0-4.69 2.55-7.28A9 9 0 0 1 15.63 0a39.57 39.57 0 0 1 5.6.31z"/></svg><svg id="fire" data-name="Layer 1" width="56" height="64" viewBox="0 0 56 64" x="193.59" xmlns="http://www.w3.org/2000/svg"><defs><style>.gcls-1{fill:#d4953d}</style></defs><title>Untitled-2</title><path class="gcls-1" d="M16 0C24 16 0 24 0 40s16 24 16 24C8.16 48.16 32 40 32 24S16 0 16 0zm24 24c8 16-16 24-16 40h24c3.2 0 8-4 8-16 0-16-16-24-16-24z"/></svg><svg id="globe" data-name="Layer 1" width="64" height="64" viewBox="0 0 64 64" y="164.62" xmlns="http://www.w3.org/2000/svg"><defs><style>.hcls-1{fill:#d4953f}</style></defs><title>globe</title><path class="hcls-1" d="M32 0a32 32 0 1 0 32 32A32 32 0 0 0 32 0zm0 8a23.75 23.75 0 0 1 7.52 1.52c-1.68 1.6-3.6 3-3.28 4.48s5.52 1 5.52 4c0 2.16-3.36 2.8-1 5.28 2.8 2.8-5.12 7.84-5.28 11.52-.24 6.64 6.72 7.76 12.24 7.76 3.36 0 4.24 1.6 4 3.52a24.07 24.07 0 0 1-19.76 10 22.94 22.94 0 0 1-8.48-1.76c1.76-3.52-2.24-10.48-6-12.72-1.84-1.84-5.76-1.12-8-2a23.49 23.49 0 0 1-1.52-6.72 1.42 1.42 0 0 1 1.28-.72c1.52 0 3.6 3 4.72 2.72 1.4-.32-5.96-10.48-2.52-12.48 1.6-1 4.8 3.12 3.76-1.28-1-4.08 2.88-2.24 5.28-3.28 2.08-.88 3.6-3.28 1-4.72a8.55 8.55 0 0 1-1.76-1.52A23.75 23.75 0 0 1 32 8.08V8zm18.48 8.72A26.46 26.46 0 0 1 54 22.48v.24a11.78 11.78 0 0 1-1.76 1.76C50 26.72 49.68 22.8 48.72 22c-1-1-4.8.16-5.28-1-.56-1.48 4-3.4 7.04-4.28z"/></svg><svg id="home" data-name="Layer 1" viewBox="0 0 35.8 28.03" width="35.8" height="28.03" x="99.19" y="119" xmlns="http://www.w3.org/2000/svg"><defs><style>.icls-1{fill:#fff}</style></defs><title>home</title><path class="icls-1" d="M17.9 21.77V0L0 10.88h8.95v17.15h8.95v-6.26zM17.9 21.77V0l17.9 10.88h-8.95v17.15H17.9v-6.26z"/></svg><svg id="hq" data-name="Layer 1" viewBox="0 0 51.19 66.52" width="51.19" height="66.52" x="142.4" xmlns="http://www.w3.org/2000/svg"><defs><style>.jcls-1{fill:none;stroke:#d4953e;stroke-miterlimit:10;stroke-width:3px}.jcls-2{fill:#d4953e}</style></defs><title>hq</title><circle class="jcls-1" cx="25.6" cy="25.97" r="20.69"/><path class="jcls-2" d="M30 3.88V-.67s-.05-.26-1 .47-2.46 4.08-2.46 4.08H30zM30 3.88V-.67s.05-.26 1 .47 2.46 4.08 2.46 4.08H30zM22.69 5.17L21.13.9s-.14-.23-.82.8-.92 4.67-.92 4.67z" transform="translate(-4.4 .71)"/><path class="jcls-2" d="M22.69 5.17L21.13.9s0-.26 1.15.08S26 4 26 4zM16.26 8.88L13.34 5.4s-.21-.17-.5 1 .74 4.71.74 4.71z" transform="translate(-4.4 .71)"/><path class="jcls-2" d="M16.26 8.88L13.34 5.4s-.13-.23 1.11-.31 4.51 1.54 4.51 1.54zM11.49 14.57L7.55 12.3s-.25-.09-.12 1.14 2.3 4.17 2.3 4.17z" transform="translate(-4.4 .71)"/><path class="jcls-2" d="M11.49 14.57L7.55 12.3s-.2-.18.93-.67 4.76-.09 4.76-.09zM8.95 21.55l-4.48-.79s-.27 0 .28 1.11S8.34 25 8.34 25z" transform="translate(-4.4 .71)"/><path class="jcls-2" d="M8.95 21.55l-4.48-.79s-.25-.1.65-.95 4.44-1.72 4.44-1.72zM8.95 29l-4.48.79s-.25.1.65.95 4.44 1.72 4.44 1.72z" transform="translate(-4.4 .71)"/><path class="jcls-2" d="M8.95 29l-4.48.79s-.27 0 .28-1.11 3.59-3.13 3.59-3.13zM11.49 35.95l-3.94 2.27s-.2.18.93.67 4.76.11 4.76.11z" transform="translate(-4.4 .71)"/><path class="jcls-2" d="M11.49 35.95l-3.94 2.27s-.25.09-.12-1.14 2.3-4.17 2.3-4.17zM16.26 41.63l-2.92 3.48s-.13.23 1.11.31 4.51-1.54 4.51-1.54z" transform="translate(-4.4 .71)"/><path class="jcls-2" d="M16.26 41.63l-2.92 3.48s-.21.17-.5-1 .74-4.71.74-4.71zM22.69 45.35l-1.56 4.27s0 .26 1.15-.08 3.71-3 3.71-3z" transform="translate(-4.4 .71)"/><path class="jcls-2" d="M22.69 45.35l-1.56 4.27s-.14.23-.82-.8-.92-4.67-.92-4.67zM30 46.63v4.55s.05.26 1-.47 2.46-4.08 2.46-4.08H30zM30 46.63v4.55s-.05.26-1-.47-2.46-4.08-2.46-4.08H30zM37.31 45.35l1.56 4.27s.14.23.82-.8.92-4.67.92-4.67z" transform="translate(-4.4 .71)"/><path class="jcls-2" d="M37.31 45.35l1.56 4.27s0 .26-1.15-.08-3.71-3-3.71-3zM43.74 41.63l2.92 3.48s.21.17.5-1-.74-4.71-.74-4.71z" transform="translate(-4.4 .71)"/><path class="jcls-2" d="M43.74 41.63l2.92 3.48s.13.23-1.11.31-4.51-1.54-4.51-1.54zM48.51 35.95l3.94 2.27s.25.09.12-1.14-2.3-4.17-2.3-4.17z" transform="translate(-4.4 .71)"/><path class="jcls-2" d="M48.51 35.95l3.94 2.27s.2.18-.93.67-4.76.11-4.76.11zM51.05 29l4.48.79s.27 0-.28-1.11-3.59-3.13-3.59-3.13z" transform="translate(-4.4 .71)"/><path class="jcls-2" d="M51.05 29l4.48.79s.25.1-.65.95-4.44 1.72-4.44 1.72zM51.05 21.55l4.48-.79s.25-.1-.65-.95-4.44-1.72-4.44-1.72z" transform="translate(-4.4 .71)"/><path class="jcls-2" d="M51.05 21.55l4.48-.79s.27 0-.28 1.11S51.66 25 51.66 25zM48.51 14.57l3.94-2.27s.2-.18-.93-.67-4.76-.09-4.76-.09z" transform="translate(-4.4 .71)"/><path class="jcls-2" d="M48.51 14.57l3.94-2.27s.25-.09.12 1.14-2.3 4.17-2.3 4.17zM43.74 8.88l2.92-3.48s.13-.23-1.11-.31-4.51 1.54-4.51 1.54z" transform="translate(-4.4 .71)"/><path class="jcls-2" d="M43.74 8.88l2.92-3.48s.21-.17.5 1-.74 4.71-.74 4.71zM37.31 5.17L38.87.9s0-.26-1.15.08S34 4 34 4z" transform="translate(-4.4 .71)"/><path class="jcls-2" d="M37.31 5.17L38.87.9s.14-.23.82.8.92 4.67.92 4.67z" transform="translate(-4.4 .71)"/><path class="jcls-2" d="M49.74 62.4l-5.97-1.6v5.72l-10.18-14.8.63-.42 6.05 8.48.35-.24-6.06-8.49 5.02-3.44L49.74 62.4zM1.11 62.4l5.97-1.6v5.72l10.18-14.8-.63-.42-6.06 8.48-.34-.24 6.06-8.49-5.02-3.44L1.11 62.4zM25.6 8.98l.56 1.72h1.81l-1.47 1.07.56 1.72-1.46-1.06-1.47 1.06.56-1.72-1.47-1.07h1.82l.56-1.72zM17.1 11.25l1.35 1.22 1.57-.91-.74 1.66 1.35 1.21-1.81-.19-.73 1.66-.38-1.78-1.8-.18 1.57-.91-.38-1.78zM10.88 17.47l1.77.38.91-1.57.19 1.8 1.77.38-1.65.74.19 1.8-1.22-1.34-1.65.73.9-1.57-1.21-1.35zM8.6 25.97l1.73-.56V23.6l1.06 1.46 1.73-.56-1.07 1.47 1.07 1.47-1.73-.56-1.06 1.46v-1.81l-1.73-.56zM10.88 34.47l1.21-1.35-.9-1.57 1.65.74 1.22-1.35-.19 1.8 1.65.74-1.77.38-.19 1.8-.91-1.57-1.77.38zM17.1 40.69l.38-1.78-1.57-.9 1.8-.19.38-1.78.73 1.66 1.81-.19-1.35 1.21.74 1.66-1.57-.9-1.35 1.21zM25.6 42.97l-.56-1.73h-1.82l1.47-1.07-.56-1.72 1.47 1.07 1.46-1.07-.56 1.72 1.47 1.07h-1.81l-.56 1.73zM34.09 40.69l-1.34-1.21-1.57.9.73-1.66-1.35-1.21 1.81.19.74-1.66.37 1.78 1.81.19-1.57.9.37 1.78zM40.31 34.47l-1.77-.38-.91 1.57-.19-1.8-1.77-.38 1.66-.74-.19-1.8 1.21 1.35 1.66-.74-.91 1.57 1.21 1.35zM42.59 25.97l-1.72.56v1.81l-1.07-1.46-1.73.56 1.07-1.47-1.07-1.47 1.73.56 1.07-1.46v1.81l1.72.56zM40.31 17.47l-1.21 1.35.91 1.57-1.66-.73L37.14 21l.19-1.8-1.66-.74 1.77-.38.19-1.8.91 1.57 1.77-.38zM34.09 11.25l-.37 1.78 1.57.91-1.81.18-.37 1.78-.74-1.66-1.81.19 1.35-1.21-.73-1.66 1.57.91 1.34-1.22z"/></svg><svg id="instagram" data-name="Layer 1" width="42.01" height="42.01" viewBox="0 0 42.01 42.01" x="193.59" y="106.06" xmlns="http://www.w3.org/2000/svg"><defs><style>.kcls-1{fill:#fff}</style></defs><title>instagram</title><path class="kcls-1" d="M37.25 35.49V17.77h-3.69a11.77 11.77 0 0 1 .57 3.58 12.12 12.12 0 0 1-1.75 6.36 12.76 12.76 0 0 1-4.76 4.59 13.13 13.13 0 0 1-6.56 1.7 12.78 12.78 0 0 1-9.19-3.71 12 12 0 0 1-3.83-9 11.77 11.77 0 0 1 .49-3.56H4.68v17.76a1.63 1.63 0 0 0 1.6 1.67h29.3a1.63 1.63 0 0 0 1.17-.47 1.59 1.59 0 0 0 .5-1.2zm-7.77-14.57A7.75 7.75 0 0 0 27 15.14a8.28 8.28 0 0 0-6-2.4 8.25 8.25 0 0 0-5.91 2.39 7.75 7.75 0 0 0-2.47 5.78 7.75 7.75 0 0 0 2.47 5.79A8.25 8.25 0 0 0 21 29.1a8.28 8.28 0 0 0 6-2.4 7.75 7.75 0 0 0 2.48-5.78zm7.76-9.84V6.56a1.84 1.84 0 0 0-.54-1.31 1.8 1.8 0 0 0-1.31-.56h-4.78a1.8 1.8 0 0 0-1.31.56 1.84 1.84 0 0 0-.54 1.31v4.52A1.87 1.87 0 0 0 30.6 13h4.8a1.87 1.87 0 0 0 1.85-1.89zM42 5.39v31.23A5.41 5.41 0 0 1 36.62 42H5.39a5.19 5.19 0 0 1-3.8-1.59A5.19 5.19 0 0 1 0 36.62V5.39a5.19 5.19 0 0 1 1.59-3.8A5.19 5.19 0 0 1 5.39 0h31.23a5.19 5.19 0 0 1 3.8 1.59A5.19 5.19 0 0 1 42 5.39z"/></svg><svg id="mail" data-name="Layer 1" width="64" height="48" viewBox="0 0 64 48" x="249.59" xmlns="http://www.w3.org/2000/svg"><defs><style>.lcls-1{fill:#2f5572}</style></defs><title>mail</title><path class="lcls-1" d="M0 0v8l32 16L64 8V0H0zm0 16v32h64V16L32 32z"/></svg><svg id="manali_logo" viewBox="0 0 142.4 59.5" width="142.4" height="59.5" y="59.5" xmlns="http://www.w3.org/2000/svg"><style>.mst0{fill:#fff}</style><path class="mst0" d="M33.8 19.7c-.2-4.2-.5-9.3-.5-13.1h-.1c-1.1 3.6-2.5 7.4-4.2 11.5l-6 14.8h-3.3l-5.4-14.5c-1.6-4.3-2.9-8.2-3.9-11.8h-.1c-.1 3.7-.3 8.8-.6 13.4l-.9 13H4.6L7 2.6h5.5l5.7 14.7c1.4 3.7 2.5 7.1 3.4 10.2h.1c.8-3.1 2-6.4 3.5-10.2l6-14.7h5.5L38.8 33h-4.2l-.8-13.3zM59 33l-.3-2.8h-.1c-1.3 1.7-3.9 3.2-7.4 3.2-4.9 0-7.4-3.1-7.4-6.3 0-5.3 5.2-8.2 14.5-8.1v-.5c0-1.8-.5-5.1-5.5-5.1-2.2 0-4.6.6-6.3 1.6l-1-2.6c2-1.2 4.9-1.9 7.9-1.9 7.4 0 9.1 4.6 9.1 8.9v8.2c0 1.9.1 3.7.4 5.2H59zm-.7-11.1c-4.8-.1-10.2.7-10.2 4.9 0 2.6 1.9 3.8 4.1 3.8 3.1 0 5.1-1.8 5.8-3.7.1-.4.2-.9.2-1.3v-3.7zM69.6 17.1c0-2.3 0-4.1-.2-5.9h3.9l.2 3.6h.1c1.2-2.1 4-4.1 8-4.1 3.3 0 8.5 1.8 8.5 9.3v13h-4.4V20.4c0-3.5-1.4-6.5-5.6-6.5-2.9 0-5.1 1.8-5.9 4.1-.2.5-.3 1.2-.3 1.9V33h-4.4V17.1zM110.5 33l-.3-2.8h-.2c-1.3 1.7-3.9 3.2-7.4 3.2-4.9 0-7.4-3.1-7.4-6.3 0-5.3 5.2-8.2 14.5-8.1v-.5c0-1.8-.5-5.1-5.5-5.1-2.2 0-4.6.6-6.3 1.6l-1-2.6c2-1.2 4.9-1.9 7.9-1.9 7.4 0 9.1 4.6 9.1 8.9v8.2c0 1.9.1 3.7.4 5.2h-3.8zm-.6-11.1c-4.8-.1-10.2.7-10.2 4.9 0 2.6 1.9 3.8 4.1 3.8 3.1 0 5.1-1.8 5.8-3.7.1-.4.2-.9.2-1.3v-3.7zM121.2 1h4.4v32h-4.4V1zM137.8 5.1c0 1.4-1 2.4-2.8 2.4-1.5 0-2.6-1.1-2.6-2.4 0-1.4 1.1-2.5 2.7-2.5s2.7 1.1 2.7 2.5zM132.9 33V11.2h4.4V33h-4.4z"/><g><path class="mst0" d="M4.6 36.8c1-.2 2.7-.4 4.4-.4 2.4 0 3.9.4 5.1 1.3 1 .7 1.5 1.8 1.5 3.2 0 1.7-1.2 3.3-3.1 4v.1c1.8.4 3.8 1.9 3.8 4.5 0 1.6-.6 2.7-1.6 3.6-1.3 1.2-3.4 1.7-6.4 1.7-1.7 0-2.9-.1-3.7-.2V36.8zM7 44.2h2.2c2.5 0 4-1.3 4-3 0-2.1-1.7-3-4.1-3-1.1 0-1.7.1-2.1.2v5.8zm0 8.6c.5.1 1.2.1 2 .1 2.5 0 4.8-.9 4.8-3.5 0-2.5-2.2-3.5-4.8-3.5H7v6.9zM21 48.5c.1 3.2 2.2 4.5 4.6 4.5 1.7 0 2.8-.3 3.7-.7l.4 1.7c-.9.4-2.3.8-4.4.8-4.1 0-6.6-2.6-6.6-6.5s2.4-7 6.3-7c4.4 0 5.5 3.7 5.5 6.1 0 .5-.1.9-.1 1.1H21zm7.1-1.7c0-1.5-.6-3.8-3.4-3.8-2.5 0-3.5 2.2-3.7 3.8h7.1zM40.8 54.6l-.2-1.6h-.1c-.7 1-2.2 1.9-4.1 1.9-2.7 0-4.1-1.9-4.1-3.7 0-3.1 2.9-4.9 8-4.8v-.3c0-1.1-.3-3-3-3-1.2 0-2.5.4-3.5 1l-.6-1.6c1.1-.7 2.7-1.2 4.4-1.2 4.1 0 5.1 2.7 5.1 5.3v4.9c0 1.1.1 2.2.2 3.1h-2.1zm-.3-6.6c-2.6-.1-5.7.4-5.7 2.9 0 1.5 1 2.3 2.3 2.3 1.7 0 2.8-1.1 3.2-2.2.1-.2.1-.5.1-.8V48zM57.9 51.1c0 1.3 0 2.5.1 3.5h-2.2l-.1-2.1h-.1c-.6 1-2 2.4-4.4 2.4-2.1 0-4.6-1.1-4.6-5.7v-7.6H49v7.2c0 2.5.8 4.1 3 4.1 1.6 0 2.8-1.1 3.2-2.1.1-.3.2-.8.2-1.2v-8h2.4v9.5zM64.8 37.9v3.7h3.5v1.8h-3.5v7c0 1.6.5 2.5 1.8 2.5.6 0 1.1-.1 1.4-.2l.1 1.8c-.5.2-1.2.3-2.2.3-1.1 0-2-.3-2.6-1-.7-.7-.9-1.9-.9-3.4v-7.1h-2.1v-1.8h2.1v-3.1l2.4-.5zM72.2 41.6l2.9 7.7c.3.9.6 1.9.9 2.7.2-.8.5-1.8.9-2.7l2.6-7.6h2.6L78.5 51c-1.7 4.5-2.9 6.7-4.6 8.1-1.2 1-2.4 1.4-3 1.5l-.6-2c.6-.2 1.4-.6 2.1-1.2.7-.5 1.5-1.4 2-2.6.1-.2.2-.4.2-.6 0-.1-.1-.3-.2-.6l-4.9-12h2.7z"/></g><g><path class="mst0" d="M101.2 56.5c-.9.4-2.7.9-5 .9-5.4 0-9.4-3.2-9.4-9.1 0-5.7 4.1-9.5 10-9.5 2.4 0 3.9.5 4.5.8l-.6 1.9c-.9-.4-2.3-.8-3.9-.8-4.5 0-7.5 2.7-7.5 7.5 0 4.4 2.7 7.3 7.3 7.3 1.5 0 3-.3 4-.8l.6 1.8zM111.6 57l-.2-1.6h-.1c-.8 1-2.2 1.9-4.2 1.9-2.8 0-4.2-1.9-4.2-3.7 0-3.1 3-4.9 8.3-4.8v-.3c0-1.1-.3-3-3.1-3-1.3 0-2.6.4-3.6 1l-.6-1.6c1.1-.7 2.8-1.2 4.5-1.2 4.2 0 5.2 2.7 5.2 5.3v4.9c0 1.1.1 2.2.2 3.1h-2.2zm-.4-6.6c-2.7-.1-5.8.4-5.8 2.9 0 1.5 1.1 2.3 2.4 2.3 1.8 0 2.9-1.1 3.3-2.2.1-.2.1-.5.1-.8v-2.2zM117.6 48.1c0-1.5 0-2.8-.1-4.1h2.2l.1 2.5h.1c.6-1.7 2.1-2.8 3.8-2.8.3 0 .5 0 .7.1V46c-.3-.1-.5-.1-.9-.1-1.8 0-3 1.3-3.3 3-.1.3-.1.7-.1 1.1v7h-2.5v-8.9zM128 51c.1 3.2 2.2 4.5 4.7 4.5 1.8 0 2.9-.3 3.8-.7l.4 1.7c-.9.4-2.4.8-4.6.8-4.2 0-6.8-2.6-6.8-6.5s2.4-7 6.4-7c4.5 0 5.7 3.7 5.7 6.1 0 .5-.1.9-.1 1.1H128zm7.3-1.7c0-1.5-.7-3.8-3.5-3.8-2.5 0-3.6 2.2-3.8 3.8h7.3z"/></g></svg><svg id="rain" data-name="Layer 1" width="64" height="64" viewBox="0 0 64 64" x="249.59" y="112" xmlns="http://www.w3.org/2000/svg"><defs><style>.ncls-1{fill:#d4953f}</style></defs><title>rain</title><path class="ncls-1" d="M36 0a20.42 20.42 0 0 0-20 16A16 16 0 0 0 0 32a15.4 15.4 0 0 0 4.27 10.72A11.88 11.88 0 0 1 12 40a10.51 10.51 0 0 1 4.47 1A12 12 0 0 1 28 32a12.06 12.06 0 0 1 11.51 9A11.84 11.84 0 0 1 44 40a11.94 11.94 0 0 1 11 7.52A12.07 12.07 0 0 0 64 36c0-5.2-3.36-10.32-8-12v-4A20 20 0 0 0 36 0zm-9.27 40A4 4 0 0 0 24 44v16a4 4 0 1 0 8 0V44a4 4 0 0 0-4.71-4h-.56zm-16 8A4 4 0 0 0 8 52v8a4 4 0 1 0 8 0v-8a4 4 0 0 0-4.71-4h-.54zm32 0A4 4 0 0 0 40 52v8a4 4 0 1 0 8 0v-8a4 4 0 0 0-4.71-4h-.58z" transform="translate(-.04)"/></svg><svg id="star" data-name="Layer 1" width="64" height="64" viewBox="0 0 64 64" y="228.62" xmlns="http://www.w3.org/2000/svg"><defs><style>.ocls-1{fill:#d4953f}</style></defs><title>star</title><path class="ocls-1" d="M32 0l-8 24H0l20 16-8 24 20-16 20 16-8-24 20-16H40z"/></svg><svg id="suitcase" data-name="Layer 1" viewBox="0 0 59.88 45.42" width="59.88" height="45.42" x="249.59" y="176" xmlns="http://www.w3.org/2000/svg"><defs><style>.pcls-1{fill:#d4953e}.pcls-2{fill:none;stroke:#d4953e;stroke-miterlimit:10;stroke-width:2px}</style></defs><title>suitcase</title><path class="pcls-1" d="M29.87 8.87h17.99v36.56H29.87zM11.87 8.87h17.99v36.56H11.87z"/><path class="pcls-1" d="M60 25.5v28c0 2.35-1.41 4.26-3.15 4.26h-7V21.24h7c1.74 0 3.15 1.91 3.15 4.26zM.12 25.5v28c0 2.35 1.41 4.26 3.15 4.26h7V21.24h-7c-1.74 0-3.15 1.91-3.15 4.26z" transform="translate(-.12 -12.37)"/><path class="pcls-2" d="M23.48 1h12.77a2.61 2.61 0 0 1 2.61 2.61v8.73h-18V3.61A2.61 2.61 0 0 1 23.48 1z"/></svg><svg id="time" data-name="Layer 1" viewBox="0 0 59.72 60.8" width="59.72" height="60.8" x="188" y="164.62" xmlns="http://www.w3.org/2000/svg"><defs><style>.qcls-1{fill:none;stroke-width:4px}.qcls-1,.qcls-2{stroke:#d4953e;stroke-miterlimit:10}.qcls-2,.qcls-3{fill:#d4953e}</style></defs><title>time</title><path class="qcls-1" d="M5.73 47a28.39 28.39 0 1 0-2.99-22" transform="translate(-.81 -2.11)"/><path class="qcls-2" d="M1.6 39.19L8.4 43l-6.7 3.98-.1-7.79z"/><path class="qcls-3" d="M29.48 6.87a1.6 1.6 0 0 1 1.6 1.6v25.17h-3.2V8.48a1.6 1.6 0 0 1 1.6-1.6z"/><path class="qcls-3" d="M38.65 29.08a1.6 1.6 0 0 1 1.6 1.6v19.54H37V30.68a1.6 1.6 0 0 1 1.65-1.6z" transform="rotate(120 38.854 38.359)"/></svg><svg id="twitter" data-name="Layer 1" width="51.78" height="42.06" viewBox="0 0 51.78 42.06" x="193.59" y="64" xmlns="http://www.w3.org/2000/svg"><defs><style>.rcls-1{fill:#fff}</style></defs><title>twitter</title><path class="rcls-1" d="M51.78 5a22.23 22.23 0 0 1-5.32 5.52v1.38a30.15 30.15 0 0 1-1.25 8.53 30.81 30.81 0 0 1-3.76 8.13 32.1 32.1 0 0 1-6.06 6.92 27 27 0 0 1-8.48 4.8 31 31 0 0 1-10.62 1.8A29.47 29.47 0 0 1 0 37.29a22.71 22.71 0 0 0 2.56.13 20.78 20.78 0 0 0 13.17-4.53 10.63 10.63 0 0 1-9.92-7.36 13.45 13.45 0 0 0 2 .16 11 11 0 0 0 2.79-.36 10.44 10.44 0 0 1-6.09-3.67 10.25 10.25 0 0 1-2.41-6.75v-.13a10.52 10.52 0 0 0 4.8 1.34 10.6 10.6 0 0 1-3.45-3.78 10.34 10.34 0 0 1-1.28-5.07 10.4 10.4 0 0 1 1.45-5.33 30.08 30.08 0 0 0 9.71 7.83A29.57 29.57 0 0 0 25.53 13a11.79 11.79 0 0 1-.26-2.43 10.23 10.23 0 0 1 3-7.48 10.64 10.64 0 0 1 15 0l.21.22A20.81 20.81 0 0 0 50.33.8a10.3 10.3 0 0 1-4.67 5.85A21.14 21.14 0 0 0 51.78 5z"/></svg><svg id="wifi" data-name="Layer 1" width="60" height="64" viewBox="0 0 60 64" x="64" y="164.62" xmlns="http://www.w3.org/2000/svg"><defs><style>.scls-1{fill:#d4953e}</style></defs><title>wifi</title><path class="scls-1" d="M29.88 0A55.39 55.39 0 0 0 0 8.72l4.22 6.48a47.32 47.32 0 0 1 25.66-7.28 47.31 47.31 0 0 1 25.9 7.28L60 8.72A55.53 55.53 0 0 0 29.88 0zm0 24a31.08 31.08 0 0 0-17 5l4.22 6.72A23.09 23.09 0 0 1 29.8 32a24.17 24.17 0 0 1 13 3.76L47 29a32.37 32.37 0 0 0-17.2-5h.07zm0 24a8 8 0 1 0 8 8 8 8 0 0 0-8-8z"/></svg><svg id="youtube" data-name="Layer 1" width="34.75" height="42" viewBox="0 0 34.75 42" x="64.44" y="119" xmlns="http://www.w3.org/2000/svg"><defs><style>.tcls-1{fill:#fff}</style></defs><title>youtube</title><path class="tcls-1" d="M22.13 29.15v5q0 1.57-.91 1.57a1.5 1.5 0 0 1-1.06-.52v-7.11a1.5 1.5 0 0 1 1.06-.54q.91 0 .91 1.6zm7.92 0v1.08h-2.1v-1.06q0-1.59 1.06-1.59t1 1.59zM7.42 24h2.5v-2.14h-7.3v2.2h2.46V37.4h2.34V24zm6.75 13.4h2.09V25.82h-2.09v8.86a1.86 1.86 0 0 1-1.31 1 .48.48 0 0 1-.49-.47 6.52 6.52 0 0 1 0-.82v-8.57h-2.14V35a5.79 5.79 0 0 0 .19 1.71 1.26 1.26 0 0 0 1.36.87 3.43 3.43 0 0 0 2.39-1.43v1.25zm10.05-3.47v-4.6A8.33 8.33 0 0 0 24 27a1.63 1.63 0 0 0-1.67-1.31A2.82 2.82 0 0 0 20.16 27v-5.1h-2.08v15.5h2.09v-1.13a2.91 2.91 0 0 0 2.18 1.31A1.62 1.62 0 0 0 24 36.27a8.61 8.61 0 0 0 .22-2.35zm7.92-.24v-.3H30a11.6 11.6 0 0 1 0 1.43.9.9 0 0 1-.94.85q-1.08 0-1.08-1.61V32h4.19v-2.41a4.65 4.65 0 0 0-.66-2.72 3.2 3.2 0 0 0-5 0 4.52 4.52 0 0 0-.66 2.72v4.05a4.4 4.4 0 0 0 .66 2.72 3 3 0 0 0 2.49 1.2 2.9 2.9 0 0 0 3-2.51 10.31 10.31 0 0 0 .09-1.36zM17.89 12.3V7.38q0-1.61-1-1.61t-1 1.61v4.92q0 1.64 1 1.64t1-1.64zm16.85 17.6a40.6 40.6 0 0 1-.61 8.2 4.45 4.45 0 0 1-1.36 2.32 4.1 4.1 0 0 1-2.39 1.08 125.31 125.31 0 0 1-13 .49 125.31 125.31 0 0 1-13-.49A4.15 4.15 0 0 1 2 40.42 4.28 4.28 0 0 1 .63 38.1 39.76 39.76 0 0 1 0 29.9a40.6 40.6 0 0 1 .61-8.2A4.45 4.45 0 0 1 2 19.37a4.25 4.25 0 0 1 2.41-1.1q4.29-.47 13-.47t13 .47a4.4 4.4 0 0 1 3.75 3.42 39.76 39.76 0 0 1 .58 8.21zM11.35 0h2.39l-2.83 9.35v6.35H8.57V9.35a39.68 39.68 0 0 0-1.43-5Q6.27 2 5.61 0H8.1l1.67 6.16zM20 7.8v4.1a4.59 4.59 0 0 1-.66 2.76 2.88 2.88 0 0 1-2.49 1.19 2.9 2.9 0 0 1-2.46-1.19 4.68 4.68 0 0 1-.66-2.76V7.8a4.59 4.59 0 0 1 .66-2.74 2.9 2.9 0 0 1 2.46-1.19 2.88 2.88 0 0 1 2.49 1.19A4.59 4.59 0 0 1 20 7.8zM27.87 4v11.7h-2.13v-1.27a3.37 3.37 0 0 1-2.41 1.45A1.31 1.31 0 0 1 22 15a6 6 0 0 1-.19-1.76V4h2.13v8.6a6.14 6.14 0 0 0 0 .82.49.49 0 0 0 .47.52 1.87 1.87 0 0 0 1.31-1V4h2.16z"/></svg></svg>