<?xml version="1.0" encoding="utf-8"?>
<!-- Generator: Adobe Illustrator 19.2.1, SVG Export Plug-In . SVG Version: 6.00 Build 0)  -->
<svg version="1.1" id="Layer_1" xmlns="http://www.w3.org/2000/svg" xmlns:xlink="http://www.w3.org/1999/xlink" x="0px" y="0px"
	 viewBox="0 0 500 500" style="enable-background:new 0 0 500 500;" xml:space="preserve">
<style type="text/css">
	.st0{fill:#FFFFFF;}
	.st1{fill:none;stroke:#A03838;stroke-width:20;stroke-miterlimit:10;}
	.st2{fill:#A03838;}
</style>
<g>
	
		<image style="overflow:visible;opacity:0.75;" width="414" height="414" xlink:href="80CF89AD.png"  transform="matrix(1 0 0 1 50 50)">
	</image>
	<g>
		<circle class="st0" cx="250" cy="250" r="181.9"/>
		<circle class="st1" cx="250" cy="250" r="181.9"/>
	</g>
</g>
<g>
	
		<image style="overflow:visible;opacity:0.75;" width="334" height="334" xlink:href="80CF89AF.png"  transform="matrix(1 0 0 1 90 90)">
	</image>
	<g>
		<circle class="st0" cx="250" cy="250" r="141.5"/>
		<circle class="st1" cx="250" cy="250" r="141.5"/>
	</g>
</g>
<g>
	
		<image style="overflow:visible;opacity:0.75;" width="254" height="254" xlink:href="80CF89AA.png"  transform="matrix(1 0 0 1 130 130)">
	</image>
	<g>
		<circle class="st0" cx="250" cy="250" r="101.9"/>
		<circle class="st1" cx="250" cy="250" r="101.9"/>
	</g>
</g>
<g>
	
		<image style="overflow:visible;opacity:0.75;" width="164" height="164" xlink:href="80CF89AB.png"  transform="matrix(1 0 0 1 175 175)">
	</image>
	<g>
		<circle class="st2" cx="250" cy="250" r="56.2"/>
		<circle class="st1" cx="250" cy="250" r="56.2"/>
	</g>
</g>
<g>
	
		<image style="overflow:visible;opacity:0.75;" width="179" height="185" xlink:href="80CF89B5.png"  transform="matrix(1 0 0 1 235 95)">
	</image>
	<g>
		<path class="st0" d="M247,254.9L247,254.9c-3.9-3.7-4-9.8-0.3-13.7l128.2-134.6c3.7-3.9,9.8-4,13.7-0.3v0c3.9,3.7,4,9.8,0.3,13.7
			L260.7,254.5C257,258.4,250.9,258.6,247,254.9z"/>
	</g>
</g>
<g>
	
		<image style="overflow:visible;opacity:0.75;" width="147" height="146" xlink:href="80CF89B7.png"  transform="matrix(1 0 0 1 365 0)">
	</image>
	<g>
		<g>
			<path class="st2" d="M432.1,123.3l56.6-53.9c1-0.9,0.6-2.6-0.6-3l-41.5-14.8l-67.2,64.1l51.3,8.2
				C431.1,123.9,431.7,123.7,432.1,123.3z"/>
			<path class="st2" d="M374.1,62.5l56.6-53.9c1-0.9,2.6-0.5,3,0.8l12.8,42.2l-67.2,64.1L373.5,64C373.5,63.4,373.7,62.9,374.1,62.5
				z"/>
		</g>
	</g>
</g>
</svg>
