<svg id="Layer_1" data-name="Layer 1" xmlns="http://www.w3.org/2000/svg" viewBox="0 0 345.86 358.6"><defs><style>.cls-1{fill:none;}.cls-2{fill:#d1d1d1;}.cls-3{font-size:18.79px;fill:#fff;font-family:Myriad Pro;}</style></defs><title>sample</title><path class="cls-1" d="M49.57,57.61" transform="translate(-25.66 -57.64)"/><path class="cls-2" d="M280.58,146.94C265.79,143,235,140.36,198,140.36V151H106V115h92v25.17C235,140.18,265.79,142.94,280.58,146.94Z" transform="translate(-25.66 -57.64)"/><path class="cls-2" d="M283.9,147.74c3.86,1.26,6.08,2.63,6.32,4.07C289.94,150.38,287.73,149,283.9,147.74Z" transform="translate(-25.66 -57.64)"/><path class="cls-2" d="M198,140v28h0.5c-50.57,0-92.5-9.29-92.5-15.88v0c0-6.59,41.82-12.07,92.5-12.07H198Z" transform="translate(-25.66 -57.64)"/><path class="cls-2" d="M198,103v23h0.5c-50.68,0-91.76-4.9-91.76-11.5S147.82,103,198.5,103H198Z" transform="translate(-25.66 -57.64)"/><path class="cls-2" d="M312.63,347h-0.19C303,339,254,333.79,198,333.79V347H83V190H198V333.38C256,333.39,303.63,339,312.63,347Z" transform="translate(-25.66 -57.64)"/><path class="cls-2" d="M198,170.49V190H100V151.27l0.64,0.84,0.8,1.27a9.82,9.82,0,0,0,1.75,1.77c0.17,0.14.36,0.27,0.53,0.38A31.34,31.34,0,0,0,114.94,161l14.52,3.76a25.69,25.69,0,0,0,3.47.65L167,169.57a23.6,23.6,0,0,0,2.75.22Z" transform="translate(-25.66 -57.64)"/><path class="cls-2" d="M83.22,190.52V161.69a20.1,20.1,0,0,1,9.24-17.14,12.79,12.79,0,0,1,5.05-2c6.39-.77,7,0,7,0l-2.35,5.31h0A32.36,32.36,0,0,0,100.32,158v32.53H83.22Z" transform="translate(-25.66 -57.64)"/><path class="cls-2" d="M104.53,142.55c-0.13.07-2.36,6.51-2.27,8.37s0.3,3.84,1,4.81a8.94,8.94,0,0,1,.81,1.37l-4.64-4.34Z" transform="translate(-25.66 -57.64)"/><path class="cls-2" d="M115.42,146.94C130.21,143,161,140.36,198,140.36V151h92V115H198v25.17C161,140.18,130.21,142.94,115.42,146.94Z" transform="translate(-25.66 -57.64)"/><path class="cls-2" d="M113.7,147.74c-3.86,1.26-6.08,2.63-6.32,4.07C107.66,150.38,109.87,149,113.7,147.74Z" transform="translate(-25.66 -57.64)"/><path class="cls-2" d="M198,140v28h1.1c50.57,0,90.9-9.29,90.9-15.88v0c0-6.59-40.22-12.07-90.9-12.07H198Z" transform="translate(-25.66 -57.64)"/><path class="cls-2" d="M198,103v23h1.1c50.68,0,91.76-4.9,91.76-11.5S249.78,103,199.1,103H198Z" transform="translate(-25.66 -57.64)"/><path class="cls-2" d="M85,347h0.19C94.63,339,142,333.79,198,333.79V347H313V190H198V333.38C142,333.39,94,339,85,347Z" transform="translate(-25.66 -57.64)"/><path class="cls-2" d="M198,333v38.2c-64,0-115.1-16.92-115.1-25.65,0-.88.3,1,1.3,0.15a2.31,2.31,0,0,1,.27,0c9.47-7.44,57-12.69,114-12.69H198Z" transform="translate(-25.66 -57.64)"/><path class="cls-2" d="M198,333v38.2c64,0,115.74-16.92,115.74-25.65,0-.88.34,1-0.66,0.15a0.4,0.4,0,0,0-.11,0C303.49,338.25,256.17,333,199.1,333H198Z" transform="translate(-25.66 -57.64)"/><path class="cls-2" d="M198,170.49V190h98V151.27l0.16,0.84-0.4,1.27a8.8,8.8,0,0,1-1.55,1.77c-0.17.14-.26,0.27-0.43,0.38A31.12,31.12,0,0,1,282.61,161l-14.49,3.76a25.51,25.51,0,0,1-3.45.65l-34.12,4.15c-1,.13-2.52.2-3.54,0.22Z" transform="translate(-25.66 -57.64)"/><path class="cls-2" d="M313.06,190.59l-0.38-28.32c-1.07-6.91-4.45-13.5-10.31-17.14a12.79,12.79,0,0,0-5.05-2c-6.39-.77-7,0-7,0l2.35,5.31h0a32.36,32.36,0,0,1,1.86,10.14V191.1Z" transform="translate(-25.66 -57.64)"/><path class="cls-2" d="M292,143.68c0.13,0.07,2.36,6.51,2.27,8.37s-0.3,3.84-1,4.81a8.94,8.94,0,0,0-.81,1.37l4.64-4.34Z" transform="translate(-25.66 -57.64)"/><text class="cls-3" transform="translate(85.48 173.7)">I<tspan x="4.49" y="0">M</tspan><tspan x="19.41" y="0">A</tspan><tspan x="30.63" y="0">GE </tspan><tspan x="55.99" y="0">C</tspan><tspan x="66.49" y="0">OMING SOON</tspan></text><rect class="cls-1" width="345.86" height="358.6"/></svg>