<?xml version="1.0" encoding="utf-8"?>
<!-- Generator: Adobe Illustrator 19.2.1, SVG Export Plug-In . SVG Version: 6.00 Build 0)  -->
<svg version="1.1" id="Layer_1" xmlns="http://www.w3.org/2000/svg" xmlns:xlink="http://www.w3.org/1999/xlink" x="0px" y="0px"
	 viewBox="0 0 142.4 59.5" style="enable-background:new 0 0 142.4 59.5;" xml:space="preserve">
<style type="text/css">
	.st0{fill:#FFFFFF;}
</style>
<g>
	<g>
		<path class="st0" d="M33.8,19.7c-0.2-4.2-0.5-9.3-0.5-13.1h-0.1c-1.1,3.6-2.5,7.4-4.2,11.5L23,32.9h-3.3l-5.4-14.5
			c-1.6-4.3-2.9-8.2-3.9-11.8h-0.1C10.2,10.3,10,15.4,9.7,20L8.8,33H4.6L7,2.6h5.5l5.7,14.7c1.4,3.7,2.5,7.1,3.4,10.2h0.1
			c0.8-3.1,2-6.4,3.5-10.2l6-14.7h5.5L38.8,33h-4.2L33.8,19.7z"/>
		<path class="st0" d="M59,33l-0.3-2.8h-0.1c-1.3,1.7-3.9,3.2-7.4,3.2c-4.9,0-7.4-3.1-7.4-6.3c0-5.3,5.2-8.2,14.5-8.1v-0.5
			c0-1.8-0.5-5.1-5.5-5.1c-2.2,0-4.6,0.6-6.3,1.6l-1-2.6c2-1.2,4.9-1.9,7.9-1.9c7.4,0,9.1,4.6,9.1,8.9v8.2c0,1.9,0.1,3.7,0.4,5.2H59
			z M58.3,21.9c-4.8-0.1-10.2,0.7-10.2,4.9c0,2.6,1.9,3.8,4.1,3.8c3.1,0,5.1-1.8,5.8-3.7c0.1-0.4,0.2-0.9,0.2-1.3V21.9z"/>
		<path class="st0" d="M69.6,17.1c0-2.3,0-4.1-0.2-5.9h3.9l0.2,3.6h0.1c1.2-2.1,4-4.1,8-4.1c3.3,0,8.5,1.8,8.5,9.3v13h-4.4V20.4
			c0-3.5-1.4-6.5-5.6-6.5c-2.9,0-5.1,1.8-5.9,4.1c-0.2,0.5-0.3,1.2-0.3,1.9V33h-4.4V17.1z"/>
		<path class="st0" d="M110.5,33l-0.3-2.8H110c-1.3,1.7-3.9,3.2-7.4,3.2c-4.9,0-7.4-3.1-7.4-6.3c0-5.3,5.2-8.2,14.5-8.1v-0.5
			c0-1.8-0.5-5.1-5.5-5.1c-2.2,0-4.6,0.6-6.3,1.6l-1-2.6c2-1.2,4.9-1.9,7.9-1.9c7.4,0,9.1,4.6,9.1,8.9v8.2c0,1.9,0.1,3.7,0.4,5.2
			H110.5z M109.9,21.9c-4.8-0.1-10.2,0.7-10.2,4.9c0,2.6,1.9,3.8,4.1,3.8c3.1,0,5.1-1.8,5.8-3.7c0.1-0.4,0.2-0.9,0.2-1.3V21.9z"/>
		<path class="st0" d="M121.2,1h4.4v32h-4.4V1z"/>
		<path class="st0" d="M137.8,5.1c0,1.4-1,2.4-2.8,2.4c-1.5,0-2.6-1.1-2.6-2.4c0-1.4,1.1-2.5,2.7-2.5C136.7,2.6,137.8,3.7,137.8,5.1
			z M132.9,33V11.2h4.4V33H132.9z"/>
	</g>
	<g>
		<path class="st0" d="M4.6,36.8c1-0.2,2.7-0.4,4.4-0.4c2.4,0,3.9,0.4,5.1,1.3c1,0.7,1.5,1.8,1.5,3.2c0,1.7-1.2,3.3-3.1,4v0.1
			c1.8,0.4,3.8,1.9,3.8,4.5c0,1.6-0.6,2.7-1.6,3.6c-1.3,1.2-3.4,1.7-6.4,1.7c-1.7,0-2.9-0.1-3.7-0.2V36.8z M7,44.2h2.2
			c2.5,0,4-1.3,4-3c0-2.1-1.7-3-4.1-3c-1.1,0-1.7,0.1-2.1,0.2V44.2z M7,52.8c0.5,0.1,1.2,0.1,2,0.1c2.5,0,4.8-0.9,4.8-3.5
			c0-2.5-2.2-3.5-4.8-3.5H7V52.8z"/>
		<path class="st0" d="M21,48.5c0.1,3.2,2.2,4.5,4.6,4.5c1.7,0,2.8-0.3,3.7-0.7l0.4,1.7c-0.9,0.4-2.3,0.8-4.4,0.8
			c-4.1,0-6.6-2.6-6.6-6.5c0-3.9,2.4-7,6.3-7c4.4,0,5.5,3.7,5.5,6.1c0,0.5-0.1,0.9-0.1,1.1H21z M28.1,46.8c0-1.5-0.6-3.8-3.4-3.8
			c-2.5,0-3.5,2.2-3.7,3.8H28.1z"/>
		<path class="st0" d="M40.8,54.6L40.6,53h-0.1c-0.7,1-2.2,1.9-4.1,1.9c-2.7,0-4.1-1.9-4.1-3.7c0-3.1,2.9-4.9,8-4.8v-0.3
			c0-1.1-0.3-3-3-3c-1.2,0-2.5,0.4-3.5,1l-0.6-1.6c1.1-0.7,2.7-1.2,4.4-1.2c4.1,0,5.1,2.7,5.1,5.3v4.9c0,1.1,0.1,2.2,0.2,3.1H40.8z
			 M40.5,48c-2.6-0.1-5.7,0.4-5.7,2.9c0,1.5,1,2.3,2.3,2.3c1.7,0,2.8-1.1,3.2-2.2c0.1-0.2,0.1-0.5,0.1-0.8V48z"/>
		<path class="st0" d="M57.9,51.1c0,1.3,0,2.5,0.1,3.5h-2.2l-0.1-2.1h-0.1c-0.6,1-2,2.4-4.4,2.4c-2.1,0-4.6-1.1-4.6-5.7v-7.6h2.4
			v7.2c0,2.5,0.8,4.1,3,4.1c1.6,0,2.8-1.1,3.2-2.1c0.1-0.3,0.2-0.8,0.2-1.2v-8h2.4V51.1z"/>
		<path class="st0" d="M64.8,37.9v3.7h3.5v1.8h-3.5v7c0,1.6,0.5,2.5,1.8,2.5c0.6,0,1.1-0.1,1.4-0.2l0.1,1.8
			c-0.5,0.2-1.2,0.3-2.2,0.3c-1.1,0-2-0.3-2.6-1c-0.7-0.7-0.9-1.9-0.9-3.4v-7.1h-2.1v-1.8h2.1v-3.1L64.8,37.9z"/>
		<path class="st0" d="M72.2,41.6l2.9,7.7c0.3,0.9,0.6,1.9,0.9,2.7H76c0.2-0.8,0.5-1.8,0.9-2.7l2.6-7.6h2.6l-3.6,9.3
			c-1.7,4.5-2.9,6.7-4.6,8.1c-1.2,1-2.4,1.4-3,1.5l-0.6-2c0.6-0.2,1.4-0.6,2.1-1.2c0.7-0.5,1.5-1.4,2-2.6c0.1-0.2,0.2-0.4,0.2-0.6
			c0-0.1-0.1-0.3-0.2-0.6l-4.9-12H72.2z"/>
	</g>
	<g>
		<path class="st0" d="M101.2,56.5c-0.9,0.4-2.7,0.9-5,0.9c-5.4,0-9.4-3.2-9.4-9.1c0-5.7,4.1-9.5,10-9.5c2.4,0,3.9,0.5,4.5,0.8
			l-0.6,1.9c-0.9-0.4-2.3-0.8-3.9-0.8c-4.5,0-7.5,2.7-7.5,7.5c0,4.4,2.7,7.3,7.3,7.3c1.5,0,3-0.3,4-0.8L101.2,56.5z"/>
		<path class="st0" d="M111.6,57l-0.2-1.6h-0.1c-0.8,1-2.2,1.9-4.2,1.9c-2.8,0-4.2-1.9-4.2-3.7c0-3.1,3-4.9,8.3-4.8v-0.3
			c0-1.1-0.3-3-3.1-3c-1.3,0-2.6,0.4-3.6,1l-0.6-1.6c1.1-0.7,2.8-1.2,4.5-1.2c4.2,0,5.2,2.7,5.2,5.3v4.9c0,1.1,0.1,2.2,0.2,3.1
			H111.6z M111.2,50.4c-2.7-0.1-5.8,0.4-5.8,2.9c0,1.5,1.1,2.3,2.4,2.3c1.8,0,2.9-1.1,3.3-2.2c0.1-0.2,0.1-0.5,0.1-0.8V50.4z"/>
		<path class="st0" d="M117.6,48.1c0-1.5,0-2.8-0.1-4.1h2.2l0.1,2.5h0.1c0.6-1.7,2.1-2.8,3.8-2.8c0.3,0,0.5,0,0.7,0.1v2.2
			c-0.3-0.1-0.5-0.1-0.9-0.1c-1.8,0-3,1.3-3.3,3c-0.1,0.3-0.1,0.7-0.1,1.1V57h-2.5V48.1z"/>
		<path class="st0" d="M128,51c0.1,3.2,2.2,4.5,4.7,4.5c1.8,0,2.9-0.3,3.8-0.7l0.4,1.7c-0.9,0.4-2.4,0.8-4.6,0.8
			c-4.2,0-6.8-2.6-6.8-6.5c0-3.9,2.4-7,6.4-7c4.5,0,5.7,3.7,5.7,6.1c0,0.5-0.1,0.9-0.1,1.1H128z M135.3,49.3c0-1.5-0.7-3.8-3.5-3.8
			c-2.5,0-3.6,2.2-3.8,3.8H135.3z"/>
	</g>
</g>
</svg>
